<svg width="827" height="221" viewBox="0 0 827 221" fill="none" xmlns="http://www.w3.org/2000/svg">
<path d="M2.27273 124L17.7273 30.9091H79.3636L76.6364 47.1364H34.6818L31.0455 69.3182H68.9091L66.1818 85.5455H28.3182L21.9545 124H2.27273ZM76.7841 124L88.4205 54.1818H107.784L96.1477 124H76.7841ZM100.102 45.0909C97.2235 45.0909 94.8447 44.1364 92.9659 42.2273C91.1174 40.2879 90.3598 37.9848 90.6932 35.3182C91.0265 32.5909 92.3295 30.2879 94.6023 28.4091C96.875 26.5 99.4508 25.5454 102.33 25.5454C105.208 25.5454 107.557 26.5 109.375 28.4091C111.193 30.2879 111.951 32.5909 111.648 35.3182C111.345 37.9848 110.057 40.2879 107.784 42.2273C105.542 44.1364 102.981 45.0909 100.102 45.0909ZM137.841 83.6364L131.114 124H111.795L123.432 54.1818H141.841L139.841 66.5H140.614C142.826 62.4091 145.947 59.1818 149.977 56.8182C154.038 54.4545 158.659 53.2727 163.841 53.2727C168.689 53.2727 172.735 54.3333 175.977 56.4545C179.25 58.5758 181.553 61.5909 182.886 65.5C184.25 69.4091 184.477 74.0909 183.568 79.5455L176.114 124H156.75L163.614 83C164.311 78.7273 163.765 75.3939 161.977 73C160.22 70.5758 157.386 69.3636 153.477 69.3636C150.871 69.3636 148.477 69.9242 146.295 71.0455C144.114 72.1667 142.28 73.803 140.795 75.9545C139.341 78.0758 138.356 80.6364 137.841 83.6364ZM216.92 125.136C211.587 125.136 206.996 123.773 203.148 121.045C199.33 118.288 196.602 114.242 194.966 108.909C193.36 103.545 193.208 96.9697 194.511 89.1818C195.845 81.1818 198.239 74.5303 201.693 69.2273C205.148 63.8939 209.239 59.9091 213.966 57.2727C218.693 54.6061 223.617 53.2727 228.739 53.2727C232.617 53.2727 235.754 53.9394 238.148 55.2727C240.572 56.5758 242.436 58.2121 243.739 60.1818C245.042 62.1212 245.951 64.0303 246.466 65.9091H247.057L252.92 30.9091H272.239L256.784 124H237.693L239.557 112.818H238.739C237.527 114.758 235.92 116.682 233.92 118.591C231.951 120.47 229.557 122.03 226.739 123.273C223.951 124.515 220.678 125.136 216.92 125.136ZM225.466 109.727C228.557 109.727 231.345 108.879 233.83 107.182C236.314 105.455 238.405 103.045 240.102 99.9545C241.799 96.8636 242.981 93.2424 243.648 89.0909C244.345 84.9394 244.36 81.3333 243.693 78.2727C243.027 75.2121 241.723 72.8485 239.784 71.1818C237.875 69.5151 235.345 68.6818 232.193 68.6818C229.011 68.6818 226.193 69.5455 223.739 71.2727C221.314 73 219.299 75.3939 217.693 78.4545C216.117 81.5151 214.996 85.0606 214.33 89.0909C213.663 93.1515 213.617 96.7424 214.193 99.8636C214.769 102.955 215.996 105.379 217.875 107.136C219.754 108.864 222.284 109.727 225.466 109.727ZM302.284 124L313.92 54.1818H333.284L321.648 124H302.284ZM325.602 45.0909C322.723 45.0909 320.345 44.1364 318.466 42.2273C316.617 40.2879 315.86 37.9848 316.193 35.3182C316.527 32.5909 317.83 30.2879 320.102 28.4091C322.375 26.5 324.951 25.5454 327.83 25.5454C330.708 25.5454 333.057 26.5 334.875 28.4091C336.693 30.2879 337.451 32.5909 337.148 35.3182C336.845 37.9848 335.557 40.2879 333.284 42.2273C331.042 44.1364 328.481 45.0909 325.602 45.0909ZM385.932 54.1818L383.523 68.7273H341.432L343.886 54.1818H385.932ZM356.159 37.4545H375.523L364.705 102.545C364.402 104.333 364.447 105.727 364.841 106.727C365.235 107.697 365.886 108.379 366.795 108.773C367.735 109.167 368.856 109.364 370.159 109.364C371.068 109.364 371.992 109.288 372.932 109.136C373.871 108.955 374.583 108.818 375.068 108.727L375.795 123.136C374.705 123.47 373.235 123.833 371.386 124.227C369.568 124.621 367.417 124.864 364.932 124.955C360.205 125.136 356.205 124.515 352.932 123.091C349.659 121.636 347.311 119.409 345.886 116.409C344.462 113.409 344.159 109.636 344.977 105.091L356.159 37.4545ZM425.409 30.9091L412.864 96.0909H396.318L405.273 30.9091H425.409ZM400.909 125.182C397.848 125.182 395.333 124.121 393.364 122C391.424 119.879 390.545 117.303 390.727 114.273C390.939 111.273 392.197 108.742 394.5 106.682C396.833 104.591 399.515 103.545 402.545 103.545C405.455 103.545 407.909 104.591 409.909 106.682C411.909 108.773 412.788 111.303 412.545 114.273C412.394 116.273 411.742 118.106 410.591 119.773C409.47 121.409 408.045 122.727 406.318 123.727C404.591 124.697 402.788 125.182 400.909 125.182Z" fill="#7656FE"/>
<path d="M141.5 54H123.5L112 124H131L141.5 54Z" fill="#7656FE" stroke="#7656FE"/>
<path d="M272 31H253L238 124H257L272 31Z" fill="#3E4260"/>
<path d="M176 124H157L169.5 53.5L171 54L172.5 54.5L176.5 57L180 60L182.5 64.5L183.5 68L184 71V74.1875V76.5L183.5 80L182 89L176 124Z" fill="#3E4260"/>
<path d="M272 31H253L238 124H257L272 31Z" stroke="#3E4260"/>
<path d="M176 124H157L169.5 53.5L171 54L172.5 54.5L176.5 57L180 60L182.5 64.5L183.5 68L184 71V74.1875V76.5L183.5 80L182 89L176 124Z" stroke="#3E4260"/>
<path d="M107.5 54H88.5L77 124H96L107.5 54Z" fill="#3E4260" stroke="#3E4260"/>
<path d="M78.5 31H17.5L2 124H21.5L33.5 47H76.5L78.5 31Z" fill="#3E4260" stroke="#3E4260"/>
<path d="M65.5 85.5L68 70H10.5L8 85.5H65.5Z" fill="#7656FE" stroke="#7656FE"/>
<path d="M385.5 54.5H344L342 68.5H383.5L385.5 54.5Z" fill="#3E4260"/>
<path d="M412.5 96H396.5L405.5 31H425.5L412.5 96Z" fill="#3E4260"/>
<path d="M324.5 26L326 25.5H326.5H327H331H331.5L333 26.5L334.5 27.5L335.5 28.5L336.5 29.5L337 31L337.5 33.5V36L337 37.5L336 39.5L335.5 40.5L333.5 42.5L332 43.5L330.5 44.5L328.5 45L327 45.5H325.5H324L322.5 45L321 44.5L319.5 43.5L318 42L317 40.5L316 38.5V36.5V34.5L316.5 33L317 32L318 30.5L319 29.5L320.5 28L322.5 27L324.5 26Z" fill="#3E4260"/>
<path d="M327 25.5H326.5M326.5 25.5H326L324.5 26L322.5 27L320.5 28L319 29.5L318 30.5L317 32L316.5 33L316 34.5V36.5V38.5L317 40.5L318 42L319.5 43.5L321 44.5L322.5 45L324 45.5H325.5H327L328.5 45L330.5 44.5L332 43.5L333.5 42.5L335.5 40.5L336 39.5L337 37.5L337.5 36V33.5L337 31L336.5 29.5L335.5 28.5L334.5 27.5L333 26.5L331.5 25.5H331H326.5ZM344 54.5H385.5L383.5 68.5H342L344 54.5ZM396.5 96H412.5L425.5 31H405.5L396.5 96Z" stroke="#3E4260"/>
</svg>
